<?xml version="1.0" standalone="no"?>
<!DOCTYPE svg PUBLIC "-//W3C//DTD SVG 20010904//EN"
 "http://www.w3.org/TR/2001/REC-SVG-20010904/DTD/svg10.dtd">
<svg version="1.0" xmlns="http://www.w3.org/2000/svg"
 width="300.000000pt" height="300.000000pt" viewBox="0 0 300.000000 300.000000"
 preserveAspectRatio="xMidYMid meet">
<metadata>
Created by potrace 1.10, written by Peter Selinger 2001-2011
</metadata>
<g transform="translate(0.000000,300.000000) scale(0.100000,-0.100000)"
fill="#000000" stroke="none">
<path d="M400 2361 c0 -71 13 -84 36 -39 28 56 44 68 88 68 l41 0 -5 -192 -5
-193 -32 -3 c-21 -2 -33 -9 -33 -18 0 -11 20 -14 105 -14 87 0 105 3 105 15 0
9 -9 15 -23 15 -44 0 -47 13 -47 207 l0 183 38 0 c42 0 73 -24 91 -73 17 -43
31 -23 31 44 l0 59 -195 0 -195 0 0 -59z"/>
<path d="M822 2408 c3 -7 13 -15 24 -16 39 -7 44 -29 44 -202 0 -176 -4 -190
-47 -190 -14 0 -23 -6 -23 -15 0 -12 17 -15 95 -15 78 0 95 3 95 15 0 8 -8 15
-18 15 -34 0 -42 21 -42 107 l0 83 105 0 106 0 -3 -92 -3 -93 -27 -3 c-16 -2
-28 -9 -28 -18 0 -11 19 -14 95 -14 76 0 95 3 95 14 0 9 -12 16 -27 18 l-28 3
0 190 0 189 24 6 c14 3 26 11 29 18 3 9 -21 12 -92 12 -79 0 -96 -3 -96 -15 0
-8 8 -15 18 -15 33 0 42 -22 42 -97 l0 -73 -105 0 -106 0 3 83 c3 81 3 82 31
85 15 2 27 9 27 18 0 11 -19 14 -96 14 -72 0 -95 -3 -92 -12z"/>
<path d="M1350 2405 c0 -9 9 -15 24 -15 13 0 27 -7 30 -16 3 -9 6 -94 6 -190
l0 -174 -30 -6 c-16 -4 -30 -13 -30 -20 0 -11 21 -14 95 -14 78 0 95 3 95 15
0 9 -9 15 -23 15 -38 0 -47 19 -47 102 0 75 1 78 23 78 22 0 80 -69 152 -182
16 -25 23 -28 76 -28 43 0 59 4 59 14 0 7 -13 16 -29 19 -21 5 -46 28 -95 92
-69 89 -77 105 -50 105 9 0 31 15 50 34 41 41 47 97 14 139 -29 36 -76 47
-207 47 -94 0 -113 -3 -113 -15z m232 -29 c72 -54 21 -176 -73 -176 l-39 0 0
95 0 95 48 0 c26 0 55 -6 64 -14z"/>
<path d="M1790 2405 c0 -9 9 -15 23 -15 44 0 47 -14 47 -195 0 -181 -3 -195
-47 -195 -14 0 -23 -6 -23 -15 0 -13 27 -15 185 -15 l185 0 0 24 c0 13 3 44 6
70 8 58 -8 61 -35 7 -33 -64 -45 -71 -120 -71 -39 0 -72 5 -79 12 -7 7 -12 44
-12 95 l0 83 43 0 c46 0 72 -18 78 -54 2 -11 10 -21 17 -24 9 -3 12 19 12 87
0 74 -3 91 -15 91 -8 0 -15 -9 -15 -19 0 -32 -28 -51 -76 -51 l-44 0 0 85 0
85 69 0 c65 0 71 -2 95 -31 14 -17 26 -35 26 -40 0 -5 7 -9 15 -9 12 0 15 13
15 55 l0 55 -175 0 c-149 0 -175 -2 -175 -15z"/>
<path d="M2210 2405 c0 -9 9 -15 24 -15 14 0 28 -5 32 -11 8 -13 7 -355 -1
-369 -3 -5 -17 -10 -31 -10 -15 0 -24 -6 -24 -15 0 -13 27 -15 185 -15 l185 0
0 39 c0 21 3 53 6 70 9 44 -11 40 -35 -8 -33 -64 -45 -71 -120 -71 -39 0 -72
5 -79 12 -7 7 -12 44 -12 95 l0 83 44 0 c47 0 76 -24 76 -62 0 -10 7 -18 15
-18 12 0 15 17 15 90 0 73 -3 90 -15 90 -8 0 -15 -8 -15 -18 0 -29 -30 -49
-77 -54 l-43 -4 0 88 0 88 68 0 c71 0 98 -15 115 -62 4 -10 12 -18 19 -18 9 0
13 17 13 55 l0 55 -172 0 c-147 0 -173 -2 -173 -15z"/>
<path d="M2202 1783 c-63 -31 -81 -109 -37 -161 14 -16 51 -40 82 -52 101 -39
134 -105 76 -150 -52 -41 -142 1 -161 74 -4 16 -13 31 -20 34 -9 3 -12 -17
-12 -72 0 -75 5 -87 27 -65 9 9 20 9 44 0 121 -42 231 40 196 146 -11 34 -21
43 -102 83 -102 51 -122 78 -91 124 13 20 25 26 54 26 48 -1 67 -16 92 -74 12
-25 25 -46 30 -46 6 0 10 32 10 70 0 54 -3 70 -14 70 -8 0 -16 -5 -18 -11 -3
-8 -14 -7 -35 5 -40 20 -79 20 -121 -1z"/>
<path d="M570 1782 c0 -5 11 -14 24 -20 27 -12 33 -30 96 -261 19 -69 39 -121
46 -121 6 0 33 62 59 138 26 75 50 145 54 156 5 13 21 -25 54 -126 26 -80 47
-150 47 -157 0 -6 8 -11 18 -11 13 0 28 37 72 182 48 161 57 183 82 197 15 9
28 19 28 24 0 4 -34 7 -75 7 -43 0 -75 -4 -75 -10 0 -5 6 -10 13 -10 7 0 21
-6 31 -13 20 -14 20 -10 -41 -227 l-16 -54 -51 154 c-31 95 -56 155 -64 155
-8 0 -32 -56 -62 -143 -26 -79 -50 -145 -52 -148 -3 -2 -19 51 -38 119 -18 67
-35 128 -38 135 -2 7 8 14 27 18 58 12 31 24 -54 24 -47 0 -85 -4 -85 -8z"/>
<path d="M1160 1782 c0 -4 14 -13 30 -19 l30 -11 -2 -169 -3 -168 -28 -3 c-16
-2 -27 -8 -25 -14 3 -7 63 -11 170 -12 l166 -1 5 60 c6 65 1 80 -17 51 -50
-82 -48 -81 -115 -84 -84 -4 -91 3 -91 95 l0 74 48 -3 c43 -3 48 -5 57 -35 5
-18 15 -33 22 -33 16 0 19 155 3 165 -5 3 -16 -10 -24 -30 -14 -33 -18 -35
-60 -35 l-46 0 0 81 0 81 60 -4 c61 -4 110 -33 110 -65 0 -7 7 -13 15 -13 11
0 15 12 15 50 l0 50 -160 0 c-88 0 -160 -4 -160 -8z"/>
<path d="M1680 1783 c0 -5 13 -15 28 -24 l28 -16 -4 -124 c-5 -144 7 -186 60
-219 27 -17 46 -20 102 -18 64 4 70 6 102 41 l34 37 0 135 c0 122 2 137 20
155 11 11 27 20 35 20 8 0 15 5 15 10 0 6 -35 10 -85 10 -47 0 -85 -4 -85 -8
0 -5 15 -15 33 -23 l32 -14 3 -138 3 -138 -30 -29 c-24 -24 -38 -30 -74 -30
-29 0 -53 7 -68 19 -23 18 -24 27 -29 163 -3 78 -4 149 -2 156 3 7 15 15 28
18 50 13 21 24 -61 24 -47 0 -85 -3 -85 -7z"/>
<path d="M969 1147 c-39 -26 -69 -79 -69 -122 0 -16 8 -46 18 -65 53 -107 211
-107 264 0 50 98 -21 210 -132 210 -32 0 -58 -7 -81 -23z m151 -46 c36 -36 46
-73 30 -112 -18 -42 -56 -69 -99 -69 -44 0 -75 20 -97 62 -52 101 86 200 166
119z"/>
<path d="M1419 1147 c-64 -42 -85 -120 -51 -187 53 -107 211 -107 264 0 50 98
-21 210 -132 210 -32 0 -58 -7 -81 -23z m151 -46 c36 -36 46 -73 30 -112 -39
-92 -161 -92 -200 0 -16 39 -6 76 30 112 22 23 38 29 70 29 32 0 48 -6 70 -29z"/>
<path d="M1869 1147 c-64 -42 -85 -120 -51 -187 53 -107 211 -107 264 0 50 98
-21 210 -132 210 -32 0 -58 -7 -81 -23z m151 -46 c36 -36 46 -73 30 -112 -31
-73 -114 -92 -172 -40 -28 25 -33 36 -33 76 0 40 5 51 33 76 45 40 102 41 142
0z"/>
</g>
</svg>
